<?xml version="1.0" standalone="no"?>
<!DOCTYPE svg PUBLIC "-//W3C//DTD SVG 20010904//EN"
 "http://www.w3.org/TR/2001/REC-SVG-20010904/DTD/svg10.dtd">
<svg version="1.0" xmlns="http://www.w3.org/2000/svg"
 width="959.000000pt" height="959.000000pt" viewBox="0 0 959.000000 959.000000"
 preserveAspectRatio="xMidYMid meet">
<metadata>
Created by potrace 1.11, written by Peter Selinger 2001-2013
</metadata>
<g transform="translate(0.000000,959.000000) scale(0.100000,-0.100000)"
fill="#000000" stroke="none">
<path d="M3290 9361 c-48 -9 -173 -51 -206 -70 -10 -6 -44 -18 -76 -26 -31 -9
-62 -22 -68 -30 -7 -8 -18 -15 -25 -15 -17 0 -163 -68 -170 -79 -3 -5 -20 -13
-38 -16 -17 -4 -71 -29 -119 -56 -48 -27 -92 -49 -97 -49 -5 0 -14 -6 -20 -14
-7 -8 -63 -42 -124 -76 -62 -34 -125 -74 -142 -89 -16 -15 -42 -33 -57 -41
-16 -7 -28 -17 -28 -22 0 -5 -12 -13 -27 -19 -34 -13 -128 -81 -234 -171 -44
-38 -84 -68 -89 -68 -11 0 -147 -128 -271 -255 -43 -44 -85 -87 -94 -95 -36
-34 -74 -74 -99 -104 -15 -17 -58 -64 -96 -105 -39 -40 -70 -80 -70 -87 0 -7
-11 -20 -23 -29 -13 -8 -29 -26 -35 -39 -6 -14 -35 -53 -65 -88 -29 -34 -66
-85 -82 -113 -15 -27 -39 -60 -52 -73 -12 -13 -23 -28 -23 -35 0 -7 -20 -44
-45 -81 -25 -38 -45 -73 -45 -78 0 -5 -11 -19 -23 -32 -13 -13 -34 -49 -47
-80 -12 -31 -27 -59 -32 -62 -5 -3 -20 -31 -34 -62 -13 -32 -31 -68 -39 -82
-7 -14 -28 -54 -45 -90 -18 -36 -43 -86 -56 -113 -13 -26 -24 -54 -24 -62 0
-9 -9 -33 -20 -54 -11 -22 -27 -59 -35 -83 -76 -206 -87 -239 -119 -353 -54
-197 -65 -242 -72 -300 -4 -33 -14 -80 -24 -105 -9 -25 -20 -74 -24 -108 -3
-35 -15 -100 -25 -145 -41 -175 -58 -706 -33 -1059 12 -180 19 -232 42 -328 5
-25 14 -79 19 -121 4 -42 15 -90 24 -107 8 -17 18 -51 22 -74 10 -62 53 -242
75 -313 10 -33 24 -86 30 -117 6 -32 15 -60 20 -63 5 -3 14 -24 20 -46 6 -22
29 -77 50 -122 21 -45 42 -95 45 -112 4 -16 19 -57 35 -90 15 -33 40 -86 54
-117 15 -32 30 -58 35 -58 4 0 18 -26 30 -57 19 -51 48 -105 137 -261 11 -20
40 -64 62 -96 23 -33 42 -65 42 -72 0 -7 11 -25 25 -40 14 -15 25 -31 25 -37
0 -5 20 -33 45 -62 24 -29 49 -65 55 -79 5 -14 14 -26 19 -26 6 0 16 -11 23
-24 12 -23 28 -42 128 -160 25 -29 68 -79 95 -111 28 -32 96 -105 153 -162 56
-56 102 -107 102 -112 0 -6 12 -18 28 -28 27 -17 38 -26 156 -137 33 -31 63
-56 68 -56 5 0 23 -13 41 -30 18 -16 35 -30 39 -30 7 0 43 -30 106 -90 20 -20
50 -41 66 -48 16 -7 47 -28 70 -47 23 -19 53 -39 66 -45 14 -6 43 -24 65 -40
70 -53 145 -100 159 -100 7 0 25 -9 40 -21 14 -11 59 -37 98 -58 40 -20 82
-42 93 -48 11 -7 70 -35 130 -63 61 -29 133 -63 160 -76 28 -13 60 -24 71 -24
12 0 37 -11 57 -25 20 -13 56 -30 79 -36 24 -7 48 -16 53 -20 6 -3 26 -10 45
-14 19 -4 58 -18 85 -30 28 -13 73 -26 100 -30 28 -3 65 -13 83 -21 18 -8 57
-19 87 -24 30 -5 62 -13 72 -18 10 -6 55 -17 100 -25 44 -9 95 -23 112 -31 16
-9 54 -16 83 -16 29 0 121 -9 203 -19 353 -47 498 -54 785 -41 113 5 295 21
405 34 110 14 217 26 237 26 21 0 64 9 95 19 32 11 78 22 103 26 25 3 65 13
90 20 104 33 220 65 287 79 39 8 82 21 95 29 13 8 66 27 118 42 52 16 102 36
110 46 8 10 37 23 65 29 27 6 63 19 80 29 16 10 41 22 55 26 45 14 376 181
404 204 9 8 40 25 69 38 66 31 177 102 177 115 0 5 15 15 33 23 17 7 52 29 77
49 25 20 50 36 57 36 6 0 21 12 32 26 11 15 41 39 66 55 24 16 86 63 137 106
51 43 99 84 108 91 72 59 157 137 164 151 5 9 17 21 25 28 39 29 111 101 111
111 0 6 8 16 18 21 11 6 34 30 53 55 19 25 39 46 46 46 7 0 18 10 24 22 7 13
25 35 40 51 16 15 29 31 29 36 0 5 23 33 51 62 28 30 71 83 94 119 24 36 52
74 64 84 12 11 21 23 21 28 0 5 18 30 39 56 21 26 42 58 46 72 4 14 18 37 32
51 13 14 37 53 53 86 15 34 33 64 39 67 6 4 18 24 26 44 9 20 21 42 28 47 7 6
22 33 35 60 13 28 39 80 58 116 19 37 34 74 34 82 0 8 6 20 14 26 16 14 66
112 66 130 0 7 11 36 24 64 36 79 66 157 81 207 8 25 32 94 54 154 22 60 43
125 47 145 6 35 39 173 70 296 9 33 19 96 24 140 5 44 16 95 25 113 11 22 20
77 26 170 5 75 14 169 20 207 17 97 18 575 1 690 -7 50 -16 153 -21 231 -6
103 -12 147 -25 165 -9 14 -21 64 -26 110 -10 82 -28 170 -57 279 -9 30 -24
97 -34 149 -10 52 -25 104 -34 117 -8 13 -15 32 -15 43 0 11 -11 45 -25 75
-14 30 -25 59 -25 65 0 11 -54 158 -80 216 -10 22 -30 72 -45 110 -15 39 -33
77 -40 85 -7 8 -46 85 -88 171 -42 86 -91 178 -109 205 -55 82 -58 88 -74 122
-8 18 -21 35 -28 38 -8 3 -17 17 -21 32 -4 15 -25 52 -48 82 -48 62 -73 98
-102 146 -12 18 -33 42 -48 54 -15 12 -27 27 -27 34 0 7 -23 37 -50 67 -28 30
-69 79 -92 109 -23 30 -90 103 -150 162 -59 58 -108 111 -108 116 0 5 -12 18
-27 27 -15 10 -60 51 -100 91 -40 40 -110 102 -155 138 -46 36 -94 77 -108 89
-14 13 -41 33 -60 45 -20 11 -46 32 -59 46 -14 14 -30 26 -36 26 -7 0 -27 11
-46 25 -88 66 -170 125 -173 125 -2 0 -35 19 -72 42 -38 23 -88 50 -111 60
-24 10 -43 22 -43 27 0 4 -26 21 -57 37 -32 15 -73 39 -92 51 -19 13 -55 29
-80 37 -25 8 -66 26 -91 40 -25 14 -52 29 -60 32 -8 4 -42 19 -75 34 -33 14
-87 35 -120 44 -33 10 -64 22 -70 26 -5 4 -45 20 -88 35 -68 23 -91 26 -170
23 -84 -3 -96 -6 -138 -36 -26 -17 -52 -46 -59 -63 -10 -24 -13 -134 -12 -487
1 -413 2 -456 17 -465 19 -10 140 0 167 14 32 17 357 32 453 22 132 -15 316
-51 347 -68 14 -8 31 -15 38 -15 33 0 260 -126 300 -166 16 -16 33 -33 39 -39
29 -26 71 -76 71 -84 0 -5 18 -31 40 -57 22 -27 45 -64 51 -84 7 -19 20 -46
30 -59 11 -13 19 -31 19 -40 0 -22 106 -230 131 -257 10 -11 19 -24 19 -29 0
-8 48 -84 60 -95 4 -3 17 -23 30 -45 13 -22 36 -51 50 -66 14 -14 37 -38 52
-55 40 -43 62 -60 137 -109 37 -24 73 -51 80 -59 8 -9 19 -16 26 -16 8 0 23
-15 34 -34 12 -19 27 -36 35 -39 17 -7 26 -54 18 -96 -8 -37 -29 -48 -132 -71
-48 -10 -71 -9 -175 10 -65 12 -133 29 -150 37 -110 56 -247 155 -275 199 -8
13 -19 24 -25 24 -20 0 -157 174 -186 236 -48 100 -271 324 -348 349 -12 3
-29 14 -39 24 -22 22 -115 58 -215 82 -98 24 -295 26 -377 4 -30 -8 -72 -15
-93 -15 -21 0 -50 -6 -65 -13 -15 -7 -51 -19 -80 -26 -75 -18 -118 -61 -127
-126 -4 -27 -13 -61 -20 -75 -6 -14 -15 -40 -19 -59 -8 -43 -44 -123 -127
-278 -13 -24 -30 -45 -39 -48 -18 -6 -52 -69 -43 -79 4 -3 28 -6 56 -6 27 0
83 -9 125 -19 43 -11 120 -24 172 -31 90 -10 317 -74 435 -122 28 -11 64 -23
80 -27 46 -12 265 -119 265 -130 0 -5 10 -13 23 -17 12 -4 52 -27 88 -50 36
-24 70 -44 74 -44 5 0 23 -15 41 -32 17 -18 88 -87 157 -152 69 -66 143 -144
163 -175 20 -31 45 -68 55 -83 11 -15 19 -30 19 -33 0 -4 13 -26 30 -50 16
-24 30 -48 30 -54 0 -5 6 -16 13 -23 17 -17 62 -124 72 -168 4 -19 18 -56 31
-82 13 -26 24 -58 24 -70 0 -13 10 -43 21 -68 28 -61 58 -192 73 -320 7 -58
19 -125 26 -150 10 -33 13 -126 13 -340 0 -248 -2 -303 -16 -343 -9 -26 -19
-73 -23 -105 -6 -65 -51 -219 -70 -242 -7 -8 -16 -33 -20 -55 -4 -22 -20 -65
-35 -95 -16 -30 -40 -80 -54 -110 -35 -76 -81 -152 -98 -165 -7 -5 -25 -28
-39 -50 -14 -22 -33 -46 -42 -54 -9 -7 -16 -18 -16 -24 0 -6 -10 -21 -21 -33
-26 -27 -28 -88 -5 -133 9 -16 16 -43 16 -59 0 -17 9 -74 20 -127 24 -119 28
-382 6 -485 -8 -36 -19 -101 -26 -145 -10 -68 -36 -159 -82 -278 -16 -42 -47
-57 -124 -62 -71 -4 -247 23 -334 52 -25 8 -65 20 -90 27 -42 11 -78 27 -217
92 -28 13 -56 24 -61 24 -6 0 -12 7 -16 15 -3 8 -11 15 -19 15 -7 0 -37 13
-67 29 -30 16 -81 43 -112 60 -31 17 -59 35 -63 40 -3 6 -33 24 -65 42 -33 17
-60 35 -60 39 0 8 -17 14 -77 29 -33 9 -177 -10 -209 -27 -11 -5 -44 -13 -74
-17 -30 -3 -77 -13 -105 -20 -27 -8 -106 -19 -174 -25 -69 -6 -152 -19 -185
-28 -52 -15 -115 -17 -431 -17 -278 0 -381 4 -415 14 -25 7 -81 17 -125 22
-157 18 -322 47 -405 70 -117 32 -214 43 -242 28 -14 -8 -43 -24 -65 -36 -22
-12 -62 -39 -89 -59 -54 -41 -245 -144 -268 -144 -8 0 -22 -7 -30 -16 -24 -24
-113 -69 -201 -101 -142 -53 -179 -65 -235 -75 -30 -5 -77 -15 -105 -22 -27
-8 -91 -15 -141 -15 -85 -2 -93 0 -122 24 -20 17 -36 42 -42 68 -6 23 -17 56
-25 72 -7 17 -17 50 -20 75 -4 25 -18 101 -32 170 -21 107 -25 152 -25 310 0
168 3 199 31 331 43 204 42 219 -17 288 -26 31 -53 69 -60 84 -6 15 -19 30
-27 33 -9 4 -29 35 -46 70 -17 34 -37 68 -45 75 -8 6 -14 16 -14 21 0 6 -22
56 -50 113 -28 57 -50 107 -50 112 0 5 -11 36 -24 69 -13 32 -31 113 -41 179
-9 66 -23 145 -31 175 -20 76 -18 546 2 605 8 22 19 87 24 145 5 58 12 125 15
150 12 88 91 356 114 383 6 8 18 39 27 68 9 30 25 66 35 81 11 14 19 30 19 36
0 19 50 122 60 122 5 0 21 24 35 53 14 28 40 69 57 89 18 20 44 54 58 74 72
107 408 384 465 384 9 0 26 10 38 23 25 27 205 115 251 124 17 3 51 17 76 29
25 13 56 24 70 24 14 0 43 9 65 19 75 33 220 71 333 86 62 8 121 19 131 25 11
5 44 11 73 11 85 2 113 11 111 36 -1 12 -27 59 -56 105 -102 157 -150 277
-179 443 -33 190 -37 313 -30 930 4 330 4 628 0 662 -4 34 -16 80 -27 101 -39
76 -144 113 -261 93z"/>
<path d="M4195 6489 c-31 -9 -95 -72 -95 -93 1 -30 14 -56 34 -63 36 -12 49
-13 111 -12 101 2 106 2 220 -8 71 -7 138 -20 189 -38 44 -15 106 -28 138 -30
50 -4 59 -1 69 16 12 24 0 66 -30 105 -22 28 -73 57 -118 69 -16 3 -35 12 -43
19 -8 8 -35 17 -60 20 -25 4 -67 11 -95 16 -65 11 -282 11 -320 -1z"/>
<path d="M4895 5984 c-11 -2 -42 -11 -70 -19 -91 -27 -169 -43 -290 -60 -66
-9 -140 -22 -165 -28 -25 -6 -47 -12 -50 -12 -3 -1 -15 -5 -28 -9 -30 -10
-121 11 -147 34 -44 38 -183 28 -208 -15 -5 -9 -23 -32 -40 -52 -28 -32 -32
-43 -32 -95 0 -42 5 -63 15 -71 9 -7 31 -36 49 -65 36 -56 87 -102 114 -102 9
0 18 -4 22 -9 12 -20 134 -24 226 -7 57 10 140 16 227 16 117 -1 150 3 226 24
48 14 94 30 101 36 6 5 34 21 60 35 64 34 133 92 150 126 8 15 28 41 45 57 21
21 30 40 30 62 0 43 -37 106 -75 130 -31 19 -122 33 -160 24z m-615 -163 c0
-30 86 -43 164 -24 76 18 135 12 204 -21 110 -54 39 -109 -165 -126 -56 -5
-111 -14 -122 -19 -51 -28 -183 4 -210 51 -13 22 -12 28 5 51 10 15 27 27 37
27 9 0 17 5 17 10 0 6 11 16 25 22 14 6 25 19 25 30 0 10 5 18 10 18 6 0 10
-8 10 -19z"/>
<path d="M4365 5281 c-23 -10 -48 -38 -58 -64 -4 -10 -17 -21 -31 -27 -13 -5
-27 -13 -30 -18 -3 -5 -34 -20 -69 -32 -57 -20 -64 -26 -80 -64 -21 -51 -21
-53 1 -65 22 -12 111 4 126 23 33 41 185 46 216 7 42 -53 209 -61 344 -17 62
21 98 26 173 26 52 0 103 5 114 10 31 17 23 53 -21 94 -74 68 -186 99 -425
116 -77 6 -162 13 -190 15 -27 3 -59 1 -70 -4z"/>
<path d="M5249 5042 c-59 -26 -97 -89 -84 -140 11 -44 22 -53 53 -39 71 32
134 124 116 171 -6 17 -54 21 -85 8z"/>
<path d="M3785 4968 c11 -50 42 -102 75 -126 16 -12 31 -22 34 -22 2 0 9 22
15 50 15 71 2 95 -65 115 -68 20 -67 20 -59 -17z"/>
<path d="M5418 4281 c-14 -11 -31 -21 -38 -21 -17 0 -100 -50 -100 -61 0 -5
-13 -15 -30 -24 -26 -13 -30 -21 -30 -56 0 -83 22 -92 195 -79 146 11 288 40
351 72 28 15 76 36 108 47 37 13 71 34 96 60 36 37 37 40 21 55 -23 21 -88 20
-182 -3 -81 -20 -113 -19 -168 6 -19 9 -71 18 -115 20 -72 5 -84 3 -108 -16z"/>
<path d="M4040 4229 c-19 -4 -36 -12 -38 -18 -4 -11 -17 -19 -137 -84 -33 -18
-61 -40 -63 -50 -6 -29 34 -72 94 -101 68 -34 113 -31 191 9 46 24 54 26 92
14 22 -7 41 -16 41 -21 0 -4 13 -8 30 -8 33 0 52 25 43 58 -7 27 -38 29 -88 5
-19 -9 -37 -14 -40 -11 -3 3 -7 32 -9 64 -7 112 -45 158 -116 143z"/>
<path d="M4965 3871 c-28 -4 -41 -11 -43 -25 -4 -20 26 -96 38 -96 4 0 12 -10
17 -23 20 -43 176 -212 212 -229 41 -20 98 -23 168 -8 26 5 87 14 134 19 47 5
101 16 120 24 19 9 72 20 119 27 144 19 191 31 212 52 10 10 38 27 61 38 57
24 85 53 93 96 8 44 -10 82 -46 96 -30 12 -151 3 -160 -12 -8 -12 -91 -34
-187 -49 -164 -25 -398 0 -426 45 -19 32 -213 60 -312 45z"/>
<path d="M3633 3623 c-7 -2 -13 -17 -13 -33 0 -38 44 -82 105 -105 28 -11 55
-24 60 -31 6 -6 55 -25 110 -43 54 -18 104 -36 110 -41 16 -13 171 -40 233
-40 51 0 80 6 154 32 15 6 31 22 36 37 11 31 5 78 -10 87 -6 4 -62 10 -126 15
-75 6 -119 13 -124 21 -25 42 -24 41 -166 45 -77 1 -152 7 -167 13 -15 6 -30
8 -35 5 -5 -3 -15 1 -22 9 -8 7 -38 19 -67 25 -56 12 -59 12 -78 4z"/>
</g>
</svg>
